<?xml version="1.0" encoding="UTF-8"?>
<svg version="1.1" xmlns="http://www.w3.org/2000/svg" width="465" height="205">
<path d="M0 0 C153.45 0 306.9 0 465 0 C465 67.65 465 135.3 465 205 C311.55 205 158.1 205 0 205 C0 137.35 0 69.7 0 0 Z " fill="#FDFEFE" transform="translate(0,0)"/>
<path d="M0 0 C0.90878906 0.40089844 1.81757812 0.80179688 2.75390625 1.21484375 C10.71659216 5.12256301 16.73204534 10.85237257 23 17 C26.03876171 15.6552985 27.95613035 14.19624228 30.1875 11.75 C40.82718286 0.86130328 54.729864 -4.09036701 69.75 -4.375 C79.68085784 -4.3854805 88.2151354 -1.54883939 97 3 C90.10743874 11.23745126 82.8280929 18.78644284 74 25 C73.34 25 72.68 25 72 25 C71.278125 24.236875 70.55625 23.47375 69.8125 22.6875 C65.3821515 18.45405588 61.12294747 16.84135495 55.0625 16.5625 C49.0404217 16.78181696 44.60740125 18.5516559 40.20703125 22.68359375 C35.18205615 28.23374439 34.6338526 32.77938347 34.72265625 40.1796875 C35.28665649 45.91501392 37.68724854 50.10955203 42 53.875 C48.03384827 58.14897586 52.63214757 58.94409734 60 58 C67.86771387 55.44326732 71.51966254 51.79531909 75.2890625 44.5078125 C77.24783786 41.63673081 78.92343861 40.56570698 81.9375 38.875 C91.28454637 33.20000756 98.88355946 25.35925993 106.37890625 17.4609375 C108 16 108 16 111 15 C120.51002304 25.06943617 124.35238323 37.00525441 124.25 50.5625 C124.25773438 51.59052734 124.26546875 52.61855469 124.2734375 53.67773438 C124.27085937 54.67224609 124.26828125 55.66675781 124.265625 56.69140625 C124.26336914 57.59060791 124.26111328 58.48980957 124.25878906 59.41625977 C123.97105132 62.28902256 123.27686735 64.41590348 122 67 C119.828125 68.546875 119.828125 68.546875 117.25 69.75 C116.40953125 70.15734375 115.5690625 70.5646875 114.703125 70.984375 C100.42189503 76.35015505 80.49724104 73.42329913 66.30004883 69.42651367 C55.77157455 66.50502695 42.0458736 63.8561007 31.8125 68.9375 C25.40807939 73.45229948 20.80948296 79.704749 16.5625 86.1875 C12.14277987 92.6758106 5.79160455 97.40987662 -2 99 C-5.34121722 99.14110721 -8.65852869 99.11886657 -12 99 C-12.4021875 97.3603125 -12.4021875 97.3603125 -12.8125 95.6875 C-14.07360514 91.66350477 -14.07360514 91.66350477 -17 89 C-17.67546875 88.73058594 -18.3509375 88.46117188 -19.046875 88.18359375 C-21 87 -21 87 -21.6171875 85.1171875 C-21.70226562 84.37726563 -21.78734375 83.63734375 -21.875 82.875 C-23.56181485 73.86423692 -30.76813794 67.17849402 -38 62 C-49.58722585 55.14003991 -61.3548097 49.26200975 -75.0625 51.5 C-76.0215625 51.7475 -76.0215625 51.7475 -77 52 C-77.96181909 37.81316841 -71.90376911 24.52293859 -62.875 13.8125 C-46.72292456 -3.11896011 -21.77798372 -9.9672551 0 0 Z " fill="#8EC937" transform="translate(109,22)"/>
<path d="M0 0 C5.21026139 1.01661155 10.31852026 2.3985227 15.43359375 3.80859375 C23.87516284 6.07374095 32.24063539 6.28430978 40.9375 6.5625 C42.82178711 6.62727539 42.82178711 6.62727539 44.74414062 6.69335938 C47.82932968 6.79893619 50.91459263 6.90104551 54 7 C47.83263556 14.37890212 47.83263556 14.37890212 44.25 17.375 C41.16787805 20.00007725 38.13018583 22.66185417 35.125 25.375 C34.28195313 26.13554687 33.43890625 26.89609375 32.5703125 27.6796875 C31.72210938 28.44539063 30.87390625 29.21109375 30 30 C27.50312008 32.24796977 25.00546849 34.49508007 22.5078125 36.7421875 C20.81407106 38.26708244 19.12138831 39.79315402 17.4296875 41.3203125 C13.0045187 45.31243726 8.55662865 49.27325892 4.0625 53.1875 C0.8248667 56.0326929 -2.3668629 58.92853836 -5.56640625 61.81640625 C-8.30438797 64.27311858 -11.07417541 66.69022311 -13.85546875 69.09765625 C-15.52670672 70.58015696 -17.16963333 72.09459409 -18.80078125 73.62109375 C-19.28877197 74.07621338 -19.7767627 74.53133301 -20.27954102 75.00024414 C-21.68607205 76.31523273 -23.08540313 77.63790982 -24.484375 78.9609375 C-28.16890215 81.94746416 -28.16890215 81.94746416 -31 82 C-32.75390625 80.91796875 -32.75390625 80.91796875 -34.5625 79.1875 C-35.25472656 78.54167969 -35.94695312 77.89585937 -36.66015625 77.23046875 C-37.43230469 76.49441406 -38.20445313 75.75835937 -39 75 C-40.83007534 73.32975657 -42.66355805 71.66324077 -44.5 70 C-45.4384375 69.1440625 -46.376875 68.288125 -47.34375 67.40625 C-49.54352741 65.41351047 -51.75955218 63.4466186 -54 61.5 C-57.20899244 58.71185902 -60.35916444 55.86471815 -63.5 53 C-67.29952858 49.53541609 -71.12725718 46.11162705 -75.0078125 42.73828125 C-78.69632451 39.51987371 -82.34549531 36.25690811 -86 33 C-85.34 32.01 -84.68 31.02 -84 30 C-81.89551062 30.14109986 -79.7914123 30.28804175 -77.6875 30.4375 C-76.51574219 30.51871094 -75.34398438 30.59992188 -74.13671875 30.68359375 C-71 31 -71 31 -68 32 C-54.82402823 32.89096298 -43.9328537 30.60337556 -33 23 C-27.29593056 17.73260574 -22.79124326 11.5747453 -18.5078125 5.12890625 C-13.6724457 -1.69823081 -7.95286588 -0.99584013 0 0 Z " fill="#1C98D2" transform="translate(163,105)"/>
<path d="M0 0 C2.6875 2 2.6875 2 5 5 C5.46921875 5.59554688 5.9384375 6.19109375 6.421875 6.8046875 C16.97264034 21.21681541 20.56904225 38.49733375 19 56 C17.18419337 64.48064235 12.33923742 70.95847811 5.1875 75.75 C-15.68619581 87.88308514 -42.74492692 82.03309934 -64.6875 76.25 C-71.87247892 74.42091254 -78.3419446 73.68060304 -85.03125 77.41015625 C-88.40376243 80.13359387 -90.63701315 83.62711379 -93.06640625 87.18359375 C-99.60033128 96.70068455 -107.83903199 104.82672258 -119.37109375 107.5625 C-126.59206489 108.76420694 -133.03502438 108.14306942 -140 106 C-142.33297433 105.95907063 -144.66705225 105.95758277 -147 106 C-147.99 105.690625 -148.98 105.38125 -150 105.0625 C-152.9752267 104.66661958 -152.9752267 104.66661958 -154.61328125 106.38671875 C-155.17402344 107.00160156 -155.73476562 107.61648437 -156.3125 108.25 C-161.05803385 113.40729383 -165.43430268 114.70459217 -172.34765625 115.27734375 C-184.08153707 115.58580539 -197.72670517 115.0216132 -207.359375 107.61328125 C-209.71297398 105.29890892 -210.97965781 103.12904938 -212 100 C-212 98.68 -212 97.36 -212 96 C-212.639375 95.71125 -213.27875 95.4225 -213.9375 95.125 C-216 94 -216 94 -217 92 C-217.38932198 88.4182378 -217.43596718 86.63718279 -215.375 83.625 C-212.24988831 81.48676569 -210.71837535 81.3170331 -207 82 C-203.95430577 84.31737605 -202.26818702 85.77825913 -201.4375 89.5625 C-202 92 -202 92 -204.0625 94 C-205.0215625 94.99 -205.0215625 94.99 -206 96 C-205.90336117 99.86555325 -204.54301756 102.16748713 -202 105 C-199.66072434 106.0822937 -199.66072434 106.0822937 -197.0625 106.6875 C-196.20785156 106.91824219 -195.35320312 107.14898437 -194.47265625 107.38671875 C-193.65667969 107.58910156 -192.84070313 107.79148437 -192 108 C-191.3814917 108.17273438 -190.7629834 108.34546875 -190.12573242 108.5234375 C-186.21416156 109.40036254 -182.24336455 109.26884077 -178.25 109.3125 C-177.38117188 109.34150391 -176.51234375 109.37050781 -175.6171875 109.40039062 C-168.48342611 109.47001442 -163.31684559 107.90223989 -157.90625 103.16796875 C-153.08895958 96.38361807 -152.62570247 89.11192503 -154 81 C-160.00998705 70.27153376 -171.38431263 66.08921397 -182 61 C-182.99 60.505 -182.99 60.505 -184 60 C-187.87424565 59.64127355 -190.14933906 59.43289271 -193.4375 61.625 C-195.27922287 63.93539083 -195.27922287 63.93539083 -194.9375 66.9375 C-195 70 -195 70 -197.125 72.875 C-200 75 -200 75 -203.0625 75.5625 C-206 75 -206 75 -208.375 73.4375 C-210.62340519 70.06489221 -210.56783945 67.97487617 -210 64 C-207.15760587 59.79325669 -203.73037771 59.28281429 -199 58 C-197.8152917 57.3222733 -196.64817604 56.61292887 -195.5 55.875 C-191.3201116 53.63577407 -189.69004939 53.31918638 -185 54 C-171.55803258 58.1400555 -157.34841637 65.39949839 -149.375 77.5 C-147.671879 81.83521709 -147.62511523 85.4076616 -148 90 C-147.05125 90.144375 -146.1025 90.28875 -145.125 90.4375 C-142 91 -142 91 -140 92 C-140 94.64 -140 97.28 -140 100 C-132.17192687 103.57895511 -123.33055062 102.78884268 -115.3125 100.0390625 C-107.63510729 96.58942321 -101.91277838 90.54624714 -97.42578125 83.54296875 C-93.30955315 77.14314558 -89.37256698 72.49966981 -82 70 C-70.85594774 68.27682262 -60.44739368 70.96729291 -49.71484375 73.80859375 C-33.647395 77.9769309 -13.04410011 78.96452359 2 71 C5.59464104 68.48690869 8.50170557 65.94330467 10.3125 61.875 C10.61800781 61.21242187 10.92351562 60.54984375 11.23828125 59.8671875 C16.41388557 47.18032153 12.09501388 31.66730186 7.125 19.5625 C3.55450863 11.04607168 3.55450863 11.04607168 -3 5 C-7.03205921 4.32799013 -9.37746711 4.94289851 -12.625 7.25 C-16.84177358 10.64751471 -20.57117597 14.53266646 -24.36132812 18.38793945 C-30.73136539 24.82491406 -37.12449829 30.8967007 -45.5 34.5625 C-48.8927816 36.05846093 -48.8927816 36.05846093 -51.078125 38.90234375 C-51.51916793 40.2793208 -51.92552111 41.6679904 -52.29296875 43.06640625 C-53.7284429 46.99215046 -57.36291472 49.18145736 -61 51 C-66.55651064 51.81591885 -70.8454446 51.63718243 -75.5 48.3125 C-79.28028256 45.02761737 -80.67123949 42.71343184 -81.27734375 37.7109375 C-81.61500625 32.25892347 -81.0415246 28.63562725 -77.48046875 24.40625 C-73.96005384 21.06232027 -70.88442685 20.11411959 -66.125 19.5 C-61.25357682 19.69635295 -57.6552092 21.89097148 -54 25 C-52 27.8125 -52 27.8125 -51 30 C-39.30229577 27.30052979 -29.97385325 15.5628083 -21.4453125 7.62109375 C-14.69441518 1.44981893 -9.40443844 -2.79685901 0 0 Z " fill="#249CD3" transform="translate(230,24)"/>
<path d="M0 0 C16 0 16 0 22 3 C24.89892484 7.34838726 24.32977719 11.26095095 24.3125 16.375 C24.32861328 17.32117188 24.34472656 18.26734375 24.36132812 19.2421875 C24.36770075 28.31680659 24.36770075 28.31680659 21 32 C16 34 16 34 0 34 C0 22.78 0 11.56 0 0 Z " fill="#0D628A" transform="translate(318,145)"/>
<path d="M0 0 C3.21135425 2.11657439 4.1586615 3.31797569 5.75 6.8125 C6.20463435 9.96657185 6.21444779 13.06771136 6.1875 16.25 C6.2174707 17.50006836 6.2174707 17.50006836 6.24804688 18.77539062 C6.24372438 24.2433432 5.48147049 27.53728153 1.75 31.8125 C-1 32.6875 -1 32.6875 -3.25 32.8125 C-3.25 34.4625 -3.25 36.1125 -3.25 37.8125 C-5.23 37.8125 -7.21 37.8125 -9.25 37.8125 C-9.25 36.1625 -9.25 34.5125 -9.25 32.8125 C-9.9925 32.77125 -10.735 32.73 -11.5 32.6875 C-14.6285565 31.69205021 -15.6952031 30.49346129 -17.42089844 27.74707031 C-19.07250974 23.89331061 -18.82246081 19.87724677 -18.75 15.75 C-18.76546875 14.86505859 -18.7809375 13.98011719 -18.796875 13.06835938 C-18.77131397 8.8092523 -18.64736828 6.44213853 -16.33203125 2.7734375 C-11.36137022 -1.90812317 -6.4719692 -2.36475798 0 0 Z " fill="#0E628A" transform="translate(206.25,146.1875)"/>
<path d="M0 0 C3.04446613 2.45248661 5.82498416 4.71620351 6.63574219 8.71508789 C6.78807321 10.90676325 6.79579511 13.05374305 6.75 15.25 C6.76546875 15.98798828 6.7809375 16.72597656 6.796875 17.48632812 C6.75980508 22.69928575 5.63739623 25.66607609 2.25 29.8125 C-1.21192259 32.69743549 -4.23501827 33.3473575 -8.75390625 33.16796875 C-12.10458518 32.5712725 -14.20623604 30.99286911 -16.75 28.8125 C-19.40687805 24.4719489 -19.1174914 20.32691985 -19.125 15.375 C-19.14949219 14.52873047 -19.17398437 13.68246094 -19.19921875 12.81054688 C-19.2188992 8.62189123 -19.12840107 6.40867475 -16.8359375 2.796875 C-11.95210215 -1.84917061 -6.21137609 -2.68218513 0 0 Z " fill="#0E638A" transform="translate(365.75,146.1875)"/>
<path d="M0 0 C5.36466007 0.47837733 9.29298451 1.84334825 13.9375 4.625 C14.84665161 5.15697998 14.84665161 5.15697998 15.77416992 5.69970703 C27.31416452 12.62832904 27.31416452 12.62832904 30 18 C30.80701957 24.0679699 30.79488214 28.69611385 27 33.6875 C26.02495646 34.81376557 25.03319469 35.92683051 24 37 C14.49005966 32.64219822 4.55731303 22.09678332 -1.1015625 13.46484375 C-2.78861611 8.83644884 -1.51056777 4.54033511 0 0 Z " fill="#8FCA39" transform="translate(41,89)"/>
<path d="M0 0 C2.31 0 4.62 0 7 0 C7.33 4.29 7.66 8.58 8 13 C8.64066406 12.0615625 9.28132813 11.123125 9.94140625 10.15625 C10.81389878 8.93663678 11.68766421 7.71793348 12.5625 6.5 C13.18995117 5.56994141 13.18995117 5.56994141 13.83007812 4.62109375 C15.12877474 2.84392997 16.28301931 1.38110983 18 0 C21.83984375 -0.40625 21.83984375 -0.40625 25 0 C23.32577602 4.85183276 20.64710538 7.93788218 17.265625 11.71875 C15.70731276 13.9293568 15.70731276 13.9293568 16.5390625 16.36328125 C18.63844854 20.15228012 20.91654691 23.80373489 23.25390625 27.44726562 C26 31.79776213 26 31.79776213 26 34 C22.77734375 34.3671875 22.77734375 34.3671875 19 34 C16.56640625 31.4453125 16.56640625 31.4453125 14.5625 28.125 C13.88316406 27.03445312 13.20382812 25.94390625 12.50390625 24.8203125 C11 22 11 22 11 20 C10.34 20 9.68 20 9 20 C7.99740493 23.00778521 7.69685358 25.53820647 7.4375 28.6875 C7.35371094 29.68136719 7.26992188 30.67523438 7.18359375 31.69921875 C7.12300781 32.45847656 7.06242187 33.21773437 7 34 C4.69 34 2.38 34 0 34 C0 22.78 0 11.56 0 0 Z " fill="#10648B" transform="translate(288,145)"/>
<path d="M0 0 C1.98 0 3.96 0 6 0 C6.01981934 0.7113208 6.03963867 1.4226416 6.06005859 2.15551758 C6.15524867 5.37488816 6.26495229 8.5936045 6.375 11.8125 C6.4059375 12.93205078 6.436875 14.05160156 6.46875 15.20507812 C6.50742188 16.27822266 6.54609375 17.35136719 6.5859375 18.45703125 C6.6173584 19.44678955 6.6487793 20.43654785 6.68115234 21.45629883 C6.83773433 24.24075094 6.83773433 24.24075094 9 27 C12 27.41666667 12 27.41666667 15 27 C17.63991268 24.36008732 17.30240797 23.02053704 17.4140625 19.3359375 C17.45273438 18.21445313 17.49140625 17.09296875 17.53125 15.9375 C17.5621875 14.761875 17.593125 13.58625 17.625 12.375 C17.66367188 11.19164062 17.70234375 10.00828125 17.7421875 8.7890625 C17.83668845 5.85953309 17.92224558 2.93001403 18 0 C19.98 0 21.96 0 24 0 C24.08725659 4.2290362 24.1404789 8.45784012 24.1875 12.6875 C24.21263672 13.88568359 24.23777344 15.08386719 24.26367188 16.31835938 C24.27333984 17.47529297 24.28300781 18.63222656 24.29296875 19.82421875 C24.3086792 20.88729248 24.32438965 21.95036621 24.34057617 23.0456543 C23.94871416 26.44488172 23.02843714 28.26776436 21 31 C16.6171637 33.88868756 13.20635305 34.56796579 8 34 C4.29560378 32.31618354 2.09496183 30.47341182 0 27 C-0.34057617 24.06738281 -0.34057617 24.06738281 -0.29296875 20.703125 C-0.28330078 19.49785156 -0.27363281 18.29257813 -0.26367188 17.05078125 C-0.23853516 15.79652344 -0.21339844 14.54226562 -0.1875 13.25 C-0.17396484 11.98027344 -0.16042969 10.71054688 -0.14648438 9.40234375 C-0.1111324 6.26780156 -0.06178248 3.13411455 0 0 Z " fill="#085F87" transform="translate(217,145)"/>
<path d="M0 0 C2.69998498 1.75812975 4.18571904 2.91330263 5.6875 5.75 C5.875 8.5 5.875 8.5 5.6875 10.75 C3.3775 10.75 1.0675 10.75 -1.3125 10.75 C-1.9725 9.1 -2.6325 7.45 -3.3125 5.75 C-5.64544775 5.70758277 -7.97952567 5.70907063 -10.3125 5.75 C-11.8345959 7.2720959 -11.44209521 8.63210082 -11.4453125 10.75 C-11.44660156 11.554375 -11.44789063 12.35875 -11.44921875 13.1875 C-11.44535156 14.033125 -11.44148438 14.87875 -11.4375 15.75 C-11.44136719 16.595625 -11.44523437 17.44125 -11.44921875 18.3125 C-11.44792969 19.116875 -11.44664062 19.92125 -11.4453125 20.75 C-11.44418457 21.4925 -11.44305664 22.235 -11.44189453 23 C-11.50192216 24.77825811 -11.50192216 24.77825811 -10.3125 25.75 C-7.97952567 25.79092937 -5.64544775 25.79241723 -3.3125 25.75 C-2.6525 24.1 -1.9925 22.45 -1.3125 20.75 C0.9975 20.75 3.3075 20.75 5.6875 20.75 C5.41051826 24.72007156 4.92065777 26.47389212 2.3125 29.5625 C-1.94071337 33.10684448 -5.96834109 33.15108292 -11.3125 32.75 C-14.43788466 31.88183759 -15.30076036 30.76425527 -17.390625 28.2265625 C-19.81509332 23.84083729 -19.90982791 20.66505952 -19.8125 15.75 C-19.82796875 14.96882813 -19.8434375 14.18765625 -19.859375 13.3828125 C-19.82344465 8.04715608 -18.80579462 4.99185776 -15.3125 0.75 C-10.86667087 -2.74315146 -4.94613871 -1.86646744 0 0 Z " fill="#14668D" transform="translate(395.3125,146.25)"/>
<path d="M0 0 C0.721875 0.556875 1.44375 1.11375 2.1875 1.6875 C3.0846875 2.3371875 3.0846875 2.3371875 4 3 C5.76793356 5.51232663 5.38635058 7.7047413 5.1875 10.6875 C3.2075 10.6875 1.2275 10.6875 -0.8125 10.6875 C-1.1425 9.0375 -1.4725 7.3875 -1.8125 5.6875 C-5.8225934 5.50885369 -5.8225934 5.50885369 -9.8125 5.6875 C-12.37198999 8.24698999 -12.07318731 9.95957195 -12.0859375 13.453125 C-12.07820313 14.19046875 -12.07046875 14.9278125 -12.0625 15.6875 C-12.07023437 16.42484375 -12.07796875 17.1621875 -12.0859375 17.921875 C-12.22258865 22.27171903 -12.22258865 22.27171903 -9.8125 25.6875 C-6.85480823 26.18760524 -6.85480823 26.18760524 -3.8125 25.6875 C-3.3175 25.0275 -2.8225 24.3675 -2.3125 23.6875 C-1.8175 23.0275 -1.3225 22.3675 -0.8125 21.6875 C2.375 21.4375 2.375 21.4375 5.1875 21.6875 C4.86781467 25.20403861 4.56507864 27.22181968 2.3125 30 C-1.14487668 32.74556384 -4.39577446 33.02873771 -8.74609375 32.97265625 C-12.16590256 32.50073556 -14.2390947 30.89327598 -16.8125 28.6875 C-19.45027101 24.36478431 -19.21616707 20.24458983 -19.25 15.3125 C-19.28287109 14.47460938 -19.31574219 13.63671875 -19.34960938 12.7734375 C-19.386661 8.48892261 -19.19684665 5.57284194 -16.47265625 2.1484375 C-11.77106919 -2.20104833 -5.70901552 -2.66420724 0 0 Z " fill="#0D6289" transform="translate(277.8125,146.3125)"/>
<path d="M0 0 C1.6640625 1.0234375 1.6640625 1.0234375 3 3 C3.29834873 5.76118825 3.41911153 8.24548016 3.375 11 C3.38660156 11.72445312 3.39820313 12.44890625 3.41015625 13.1953125 C3.3811421 18.43720246 3.3811421 18.43720246 1.6640625 20.97265625 C-0.99580698 22.61478224 -2.96123055 22.44315388 -6 22 C-8.63573867 19.53750237 -8.9936563 18.0567823 -9.3984375 14.43359375 C-9.39070313 13.11488281 -9.38296875 11.79617187 -9.375 10.4375 C-9.38660156 9.76525391 -9.39820313 9.09300781 -9.41015625 8.40039062 C-9.39289054 5.50262905 -9.33195028 3.48239558 -7.6640625 1.05859375 C-5.04525494 -0.60736129 -3.01887572 -0.37735946 0 0 Z " fill="#F3F7F9" transform="translate(362,151)"/>
<path d="M0 0 C2.82726984 2.82726984 2.28971809 4.96775124 2.32226562 8.83203125 C2.31904297 9.71246094 2.31582031 10.59289062 2.3125 11.5 C2.32861328 12.38042969 2.34472656 13.26085937 2.36132812 14.16796875 C2.36229492 15.43060547 2.36229492 15.43060547 2.36328125 16.71875 C2.36775269 17.87793945 2.36775269 17.87793945 2.37231445 19.06054688 C2.24945068 19.70056641 2.12658691 20.34058594 2 21 C-1.22143276 23.14762184 -2.2595467 23.561068 -6 23 C-8.71651851 20.47194808 -9.00476275 18.9547539 -9.3984375 15.21484375 C-9.40636584 13.78906314 -9.39809728 12.36311556 -9.375 10.9375 C-9.38660156 10.21755859 -9.39820313 9.49761719 -9.41015625 8.75585938 C-9.39341311 5.75046627 -9.37616985 3.55818752 -7.66796875 1.0234375 C-5.07864962 -0.56532506 -2.9575664 -0.31463472 0 0 Z " fill="#F2F6F8" transform="translate(203,151)"/>
<path d="M0 0 C8 0 8 0 9.9765625 1 C11.62002516 4.21165222 11.4313782 7.47949485 11.375 11 C11.38660156 11.72445312 11.39820313 12.44890625 11.41015625 13.1953125 C11.39432636 16.05524521 11.29285053 18.42771195 9.9765625 21 C8 22 8 22 0 22 C0 14.74 0 7.48 0 0 Z " fill="#F5F9FA" transform="translate(325,151)"/>
<path d="M0 0 C1.98 0 3.96 0 6 0 C6 11.22 6 22.44 6 34 C4.02 34 2.04 34 0 34 C0 22.78 0 11.56 0 0 Z " fill="#055D86" transform="translate(247,145)"/>
</svg>
